<?xml version="1.0" encoding="utf-8"?>
<!-- Generator: Adobe Illustrator 17.0.0, SVG Export Plug-In . SVG Version: 6.00 Build 0)  -->
<!DOCTYPE svg PUBLIC "-//W3C//DTD SVG 1.1//EN" "http://www.w3.org/Graphics/SVG/1.1/DTD/svg11.dtd">
<svg version="1.1" id="Layer_1" xmlns="http://www.w3.org/2000/svg" xmlns:xlink="http://www.w3.org/1999/xlink" x="0px" y="0px"
	 width="200px" height="200px" viewBox="0 0 200 200" enable-background="new 0 0 200 200" xml:space="preserve">
<g>
	<circle fill="#EF3A30" cx="100" cy="100" r="83"/>
	<g>
		<defs>
			<circle id="SVGID_1_" cx="100" cy="100" r="83"/>
		</defs>
		<clipPath id="SVGID_2_">
			<use xlink:href="#SVGID_1_"  overflow="visible"/>
		</clipPath>
		<polygon opacity="0.25" clip-path="url(#SVGID_2_)" fill="#231F20" points="78.477,166.671 180.5,241 249,157 130.524,42.12 
			78.459,41.768 		"/>
	</g>
	<g>
		<path fill="#FBF6B3" d="M133.926,48.246c0-2.948-1.012-5.406-3.401-6.126v30.881c0,1.049-0.905,1.899-2.022,1.899
			s-2.023-0.851-2.023-1.899V44.813c0.005-0.09,0.016-0.177,0.016-0.269c0-1.533-0.727-2.776-1.624-2.776
			c-0.896,0-1.623,1.243-1.623,2.776c0,0.063,0.009,0.123,0.011,0.186h-0.011v28.271c0,1.02-0.858,1.846-1.933,1.892l0,0
			c-0.03,0.001-0.06,0.008-0.09,0.008c-0.031,0-0.06-0.007-0.091-0.008l0,0c-1.073-0.046-1.933-0.872-1.933-1.892V44.729h-0.011
			c0.003-0.063,0.011-0.122,0.011-0.186c0-1.533-0.727-2.776-1.623-2.776c-0.896,0-1.623,1.243-1.623,2.776
			c0,0.092,0.011,0.179,0.016,0.269v28.188c0,1.049-0.906,1.899-2.023,1.899s-2.022-0.851-2.022-1.899V42.12
			c-2.39,0.72-3.4,3.178-3.4,6.126l-1.41,32.344c0,3.517,2.842,6.369,6.347,6.369h5.24l-3.521,70.902h0.017
			c-0.006,0.15-0.017,0.3-0.017,0.454c0,4.532,2.65,8.212,5.954,8.343v0.013c0.03,0,0.061-0.006,0.091-0.006
			c0.03,0,0.06,0.006,0.09,0.006v-0.013c3.304-0.131,5.954-3.811,5.954-8.343c0-0.154-0.011-0.304-0.017-0.454h0.017l-3.521-70.902
			h5.241c3.505,0,6.346-2.853,6.346-6.369L133.926,48.246z"/>
		<polygon opacity="0.1" fill="#231F20" points="118.702,86.959 123.748,86.959 124.013,92.272 118.444,92.272 		"/>
		<ellipse fill="#A7D8B5" cx="121.226" cy="155.351" rx="3.719" ry="6.117"/>
	</g>
	<path fill="#D1CD93" d="M95.003,65.636c0-11.776-7.399-23.969-16.525-23.969c-9.127,0-16.526,12.192-16.526,23.969
		c0,10.635,6.034,19.449,13.926,21.059l-3.534,71.167h0.017c-0.006,0.15-0.017,0.3-0.017,0.454c0,4.615,2.746,8.355,6.135,8.355
		c3.388,0,6.135-3.74,6.135-8.355c0-0.122-0.01-0.24-0.014-0.361h0.014l-3.535-71.26C88.969,85.084,95.003,76.271,95.003,65.636z"/>
	<ellipse fill="#85AD94" cx="78.477" cy="155.351" rx="3.719" ry="6.117"/>
	<path opacity="0.2" fill="#231F20" d="M92.043,66.1c0,10.456-6.176,17.15-13.668,17.15c-7.492,0-13.464-6.694-13.464-17.15
		c0-10.457,5.722-20.475,13.214-20.475C85.617,45.625,92.043,55.643,92.043,66.1z"/>
</g>
</svg>
