<?xml version="1.0" encoding="utf-8"?>
<!-- Generator: Adobe Illustrator 17.0.0, SVG Export Plug-In . SVG Version: 6.00 Build 0)  -->
<!DOCTYPE svg PUBLIC "-//W3C//DTD SVG 1.1//EN" "http://www.w3.org/Graphics/SVG/1.1/DTD/svg11.dtd">
<svg version="1.1" id="Layer_1" xmlns="http://www.w3.org/2000/svg" xmlns:xlink="http://www.w3.org/1999/xlink" x="0px" y="0px"
	 width="200px" height="200px" viewBox="0 0 200 200" enable-background="new 0 0 200 200" xml:space="preserve">
<g>
	<path fill="#FDF5A8" d="M169.615,160.308c-0.698-0.585-1.449-1.184-2.253-1.787c0,0,10.329,6.205,18.173,6.154
		c0,0-15.847-5.704-19.855-18.263c0,0,6.82,0.609,10.449,4.273c7.081,7.147,9.634,5.406,15.156,6.159c0,0-11.72-2.944-15.881-13.21
		c-3.884-9.584-16.899-14.831-20.82-15.233c0,0,9.236-2.207,19.723,5.716c0,0-7.945-8.612-14.162-8.859
		c-6.218-0.248-12.643-3.821-16.563-4.805c-5.484-1.378-25.222-1.238-26.06,18.493c0,0-1.166,10.538,10.744,21.742
		c11.909,11.205,19.179,10.118,22.693,30.742c0,0,2.774-8.57-5.838-27.495c0,0,4.815,7.012,15.705,9.293
		c10.89,2.281,25.953,6.483,26.966,18.014c2.195-5.187-1.014-11.531-11.472-24.083C176.321,167.159,174.049,164.024,169.615,160.308
		"/>
	<path fill="#F47C50" d="M119.688,134.929c0,0-0.713,6.445,6.571,13.298c7.284,6.853,11.731,6.188,13.88,18.804
		c0,0,1.697-5.242-3.571-16.818c0,0,2.946,4.289,9.607,5.685c6.661,1.395,15.873,3.965,16.493,11.018
		c1.343-3.172-0.62-7.053-7.017-14.73c0,0-1.862-2.569-5.48-5.283c0,0,6.318,3.795,11.116,3.764c0,0-9.693-3.489-12.144-11.171
		c0,0,4.172,0.373,6.392,2.613c4.331,4.372,5.892,3.307,9.27,3.768c0,0-7.169-1.801-9.714-8.08
		c-2.375-5.862-10.336-9.071-12.734-9.317c0,0,5.649-1.35,12.064,3.496c0,0-4.86-5.267-8.663-5.418
		c-3.803-0.151-7.733-2.337-10.131-2.939C132.273,122.775,120.201,122.86,119.688,134.929z"/>
	<g>
		<path fill="#00A99D" d="M137.511,140.296c-7.979,7.979-17.056,11.84-20.272,8.624c-0.106-0.106-0.202-0.218-0.293-0.336
			c0,0-49.003-44.87-64.955-60.231c-12.254-11.8-25.355-39.238-21.907-58.067l-0.03,0.03c18.829-3.448,46.267,9.653,58.067,21.907
			c15.361,15.952,60.231,64.954,60.231,64.954c0.118,0.091,0.23,0.188,0.336,0.293c3.216,3.216-0.644,12.293-8.624,20.272
			L137.511,140.296z"/>
		<g>
			<path fill="#A555A1" d="M30.054,30.315c0.009-0.002,0.017-0.003,0.026-0.004c0.002-0.008,0.003-0.017,0.004-0.026L30.054,30.315z
				"/>
			<path fill="#A555A1" d="M30.079,30.311c-3.432,18.828,9.663,46.246,21.912,58.042c1.382,1.33,3.012,2.883,4.836,4.608
				c5.847,5.369,9.591,8.798,9.591,8.798c0.101,0.132,0.21,0.258,0.328,0.376c3.596,3.596,13.742-0.72,22.662-9.64l2.854-2.854
				c8.92-8.92,13.236-19.066,9.64-22.662c-0.118-0.118-0.244-0.227-0.376-0.328c0,0-3.431-3.747-8.803-9.598
				c-1.722-1.822-3.273-3.45-4.602-4.83C76.326,39.974,48.907,26.879,30.079,30.311z"/>
		</g>
		<path fill="#A555A1" d="M30.054,30.315c0.009-0.002,0.017-0.003,0.026-0.004c0.002-0.008,0.003-0.017,0.004-0.026L30.054,30.315z"
			/>
		<polygon fill="#6AC8C2" points="114.019,79.915 158.895,94.479 193.826,129.409 148.352,117.177 		"/>
		<polygon fill="#6AC8C2" points="79.915,114.019 94.441,158.934 129.371,193.864 117.157,148.371 		"/>
		<polygon fill="#028077" points="121.524,131.851 96.852,97.085 96.853,97.084 131.619,121.756 161.502,161.734 		"/>
		<g>
			<circle fill="#532B52" cx="79.277" cy="78.335" r="14.403"/>
			<circle fill="#A7DBD9" cx="79.278" cy="78.335" r="10.816"/>
			<circle opacity="0.5" fill="#FFFFFF" cx="72.247" cy="79.062" r="1.933"/>
			<circle opacity="0.2" fill="#FFFFFF" cx="79.277" cy="78.335" r="3.688"/>
		</g>
		<g>
			<path fill="#A555A1" d="M6.174,6.436C6.183,6.434,6.191,6.433,6.2,6.431c0.002-0.008,0.003-0.017,0.004-0.026L6.174,6.436z"/>
			<path fill="#B677B2" d="M30.079,30.311C27.36,45.23,35.018,65.54,44.408,79.2c4.441,1.56,13.256-2.722,21.12-10.586l2.854-2.854
				c7.864-7.864,12.146-16.679,10.586-21.12C65.309,35.249,44.998,27.592,30.079,30.311z"/>
		</g>
	</g>
</g>
</svg>
