<?xml version="1.0" encoding="utf-8"?>
<!-- Generator: Adobe Illustrator 17.0.0, SVG Export Plug-In . SVG Version: 6.00 Build 0)  -->
<!DOCTYPE svg PUBLIC "-//W3C//DTD SVG 1.1//EN" "http://www.w3.org/Graphics/SVG/1.1/DTD/svg11.dtd">
<svg version="1.1" id="Layer_1" xmlns="http://www.w3.org/2000/svg" xmlns:xlink="http://www.w3.org/1999/xlink" x="0px" y="0px"
	 width="200px" height="200px" viewBox="0 0 200 200" enable-background="new 0 0 200 200" xml:space="preserve">
<g>
	<g>
		
			<rect x="38.585" y="100.437" transform="matrix(-0.5888 -0.8083 0.8083 -0.5888 -20.4337 202.3289)" fill="#676767" width="5.329" height="11.851"/>
		
			<rect x="49.028" y="85.153" transform="matrix(-0.5887 -0.8083 0.8083 -0.5887 6.0624 198.0759)" fill="#4E4E4E" width="8.785" height="24.685"/>
		<circle fill="#F69321" cx="77.324" cy="80.085" r="13.773"/>
		<path fill="#F2F2F2" d="M49.197,83.534c-0.383,0.278-0.498,0.773-0.257,1.103l15.346,21.069c0.241,0.331,0.746,0.371,1.13,0.094
			l10.901-7.942c0.383-0.278,0.498-0.773,0.257-1.104L61.229,75.686c-0.241-0.33-0.746-0.372-1.129-0.094L49.197,83.534z"/>
	</g>
	<path fill="#FED6B5" d="M63.523,116.687c0,0,1.51-21.388-17.714-22.587c0,0-3.017-1.395-7.091,2.542
		c-4.073,3.937-3.604,13.797,9.182,27.141C60.684,137.127,63.523,116.687,63.523,116.687z"/>
	<path fill="#010101" d="M99.876,197.743c0.338-31.883,2.372-72.668,10.136-84.007c13.408-19.578,19.636-26.999,33.876-28.184
		c0,0,13.941,6.525,19.578,30.258c3.744,15.759,0.292,50.223-2.45,81.934H99.876z"/>
	<path fill="#FCC4A1" d="M110.012,69.19c0,0,8.561,17.295,5.345,27.404l21.261-13.702c0,0,0.266-14.232,0-24.609"/>
	<path fill="#FED6B5" d="M93.517,23.964c0,0-1.33,10.107,0,14.631c1.33,4.524-1.33,11.974-3.725,14.899
		c-2.394,2.926,4.079,6.119,4.079,6.119s-1.636,20.006,1.556,20.539c3.193,0.532,32.459,0,37.514-5.586
		c5.054-5.588,3.41-14.686,3.41-14.686s15.165-9.046,6.917-17.295C135.021,34.338,128.636,10.659,93.517,23.964z"/>
	<path fill="#9D6C56" d="M138.213,44.449c0,0-5.587,0-5.587,8.248h-4.522c0,0,7.981-26.34-18.092-28.203
		c0,0-9.844,3.193-16.495-0.53c0,0,0-20.755,20.219-21.551c20.22-0.798,27.67,1.064,38.046,15.166
		c10.376,14.099-2.463,41.149-9.194,53.476l-1.137-1.33l-1.376,1.33l-1.064-1.33l-2.276,1.33l-0.384-11.174
		C136.352,59.88,147.361,47.926,138.213,44.449z"/>
	<path fill="#F2F2F2" d="M143.888,85.552c0,0-3.502-5.091-7.271-2.66c-3.77,2.431-30.7,9.78-30.7,40.334
		C105.917,123.227,118.377,92.081,143.888,85.552z"/>
	<g>
		<path fill="#010101" d="M87.149,164.877c3.202,1.165,5.518,1.071,6.942,1.013c3.855-0.154,15.585-0.626,56.449-41.68
			c5.035-5.057,5.016-13.238-0.04-18.273c-5.061-5.036-13.241-5.018-18.276,0.039c-14.665,14.728-30.781,28.62-38.107,33.033
			c-4.63-4.488-18.954-14.619-24.94-25.879c-3.349-6.303-26.172,5.827-22.822,12.13C62.186,155.05,79.978,162.267,87.149,164.877z"
			/>
	</g>
</g>
</svg>
