<?xml version="1.0" encoding="utf-8"?>
<!-- Generator: Adobe Illustrator 17.0.0, SVG Export Plug-In . SVG Version: 6.00 Build 0)  -->
<!DOCTYPE svg PUBLIC "-//W3C//DTD SVG 1.1//EN" "http://www.w3.org/Graphics/SVG/1.1/DTD/svg11.dtd">
<svg version="1.1" id="Layer_1" xmlns="http://www.w3.org/2000/svg" xmlns:xlink="http://www.w3.org/1999/xlink" x="0px" y="0px"
	 width="200px" height="200px" viewBox="0 0 200 200" enable-background="new 0 0 200 200" xml:space="preserve">
<g>
	<path fill="#78C0A8" d="M125.074,95.944c-0.117,0.215-11.826,21.504-10.895,40.501c0.058,1.166-0.847,2.152-2.007,2.211
		c-0.042,0.006-0.073,0.006-0.107,0.006c-1.116,0-2.053-0.882-2.108-2.007c-0.778-15.953,6.468-32.782,9.806-39.628h-7.663
		c-1.006,0-1.862-0.715-2.06-1.679l-2.933,6.461c-0.408,0.885-1.367,1.386-2.309,1.205c-0.951-0.17-1.666-0.969-1.722-1.942
		l-0.238-3.725l-2.058,5.202c-0.38,0.941-1.354,1.503-2.369,1.293c-0.989-0.19-1.706-1.058-1.706-2.076v-3.932l-1.91,4.324
		c-0.4,0.901-1.379,1.417-2.332,1.222c-0.965-0.185-1.675-1.018-1.708-1.999l-0.226-6.563l-0.873,1.284
		c-0.394,0.579-1.049,0.931-1.753,0.931H80.54c8.05,14.787,9.317,38.346,9.37,39.416c0.055,1.168-0.839,2.155-2,2.22
		c-1.157,0.119-2.164-0.839-2.217-2.005c-0.016-0.265-1.468-27.276-10.655-40.535c-0.453-0.65-0.504-1.489-0.135-2.186
		c0.363-0.695,1.077-1.129,1.87-1.129h10.01l3.872-5.733c0.512-0.757,1.456-1.097,2.332-0.845c0.883,0.252,1.496,1.038,1.529,1.956
		l0.137,3.827l2.236-5.066c0.4-0.91,1.382-1.414,2.368-1.222c0.981,0.21,1.672,1.075,1.672,2.073v2.914l1.463-3.689
		c0.369-0.918,1.333-1.457,2.296-1.307c0.975,0.159,1.719,0.964,1.781,1.956l0.288,4.681l2.457-5.424
		c0.391-0.859,1.312-1.341,2.239-1.213c0.931,0.136,1.663,0.873,1.781,1.806l0.725,5.29h9.288c0.746,0,1.434,0.399,1.817,1.043
		C125.435,94.492,125.442,95.289,125.074,95.944z"/>
	<g>
		<path fill="#78C0A8" d="M101.154,28.701c1.549,0,2.801-1.255,2.801-2.8V13.435c0-1.548-1.253-2.8-2.801-2.8
			c-1.546,0-2.801,1.254-2.801,2.8v12.465C98.353,27.448,99.608,28.701,101.154,28.701z"/>
		<path fill="#78C0A8" d="M130.761,38.147c0.49,0.35,1.057,0.517,1.618,0.517c0.876,0,1.742-0.41,2.287-1.178l7.218-10.16
			c0.895-1.262,0.596-3.012-0.663-3.907c-1.259-0.895-3.007-0.599-3.906,0.66l-7.217,10.161
			C129.201,35.502,129.5,37.251,130.761,38.147z"/>
		<path fill="#78C0A8" d="M152.985,64.716l11.769-4.1c1.462-0.511,2.234-2.107,1.723-3.568c-0.511-1.46-2.108-2.231-3.567-1.723
			l-11.769,4.102c-1.462,0.51-2.232,2.108-1.723,3.569c0.401,1.154,1.485,1.879,2.645,1.879
			C152.367,64.873,152.678,64.823,152.985,64.716z"/>
		<path fill="#78C0A8" d="M65.337,37.486c0.546,0.768,1.407,1.178,2.289,1.178c0.559,0,1.126-0.167,1.616-0.517
			c1.263-0.896,1.558-2.645,0.662-3.906l-7.22-10.161c-0.895-1.26-2.643-1.555-3.903-0.66c-1.261,0.895-1.558,2.645-0.663,3.907
			L65.337,37.486z"/>
		<path fill="#78C0A8" d="M48.858,59.426l-11.769-4.102c-1.463-0.508-3.058,0.264-3.567,1.723c-0.509,1.461,0.263,3.058,1.722,3.568
			l11.769,4.1c0.307,0.107,0.615,0.157,0.923,0.157c1.158,0,2.242-0.725,2.645-1.881C51.09,61.534,50.321,59.936,48.858,59.426z"/>
	</g>
	<path fill="#F0A830" d="M100,47.098c-23.475,0-42.575,19.099-42.575,42.573v0.643c-0.002,11.846-0.006,19.672,12.187,40.367
		c1.377,2.333,1.398,2.37,2.512,4.086c1.054,1.625,3.247,5.001,8.933,13.963c0.992,1.568,3.071,2.036,4.639,1.038
		c1.568-0.992,2.032-3.068,1.038-4.636c-5.703-8.994-7.909-12.391-8.97-14.024c-1.045-1.608-1.045-1.608-2.359-3.836
		C64.143,108.157,64.144,101.443,64.15,90.32v-0.645c0-19.77,16.082-35.852,35.85-35.852c19.77,0,35.856,16.083,35.856,35.852v0.645
		c0.004,11.123,0.006,17.838-11.258,36.952c-1.312,2.229-1.312,2.229-2.359,3.836c-1.057,1.633-3.265,5.032-8.969,14.024
		c-0.994,1.568-0.531,3.643,1.041,4.636c0.557,0.357,1.18,0.523,1.797,0.523c1.112,0,2.201-0.549,2.84-1.558
		c5.682-8.961,7.874-12.339,8.931-13.964c1.116-1.716,1.141-1.755,2.514-4.086c12.194-20.695,12.189-28.522,12.186-40.368v-0.643
		C142.575,66.195,123.475,47.098,100,47.098z"/>
	<path fill="#F0A830" d="M116.901,153.888H83.102c-1.855,0-3.359,1.504-3.359,3.361c0,1.856,1.504,3.36,3.359,3.36h33.799
		c1.855,0,3.36-1.505,3.36-3.36C120.261,155.392,118.756,153.888,116.901,153.888z"/>
	<path fill="#F0A830" d="M114.713,163.535H85.291c-1.856,0-3.361,1.503-3.361,3.362c0,1.856,1.505,3.361,3.361,3.361h29.422
		c1.856,0,3.362-1.505,3.362-3.361C118.075,165.038,116.569,163.535,114.713,163.535z"/>
	<path fill="#F0A830" d="M111.553,173.183H88.45c-1.856,0-3.36,1.504-3.36,3.358c0,1.859,1.503,3.361,3.36,3.361h23.103
		c1.857,0,3.361-1.502,3.361-3.361C114.914,174.687,113.41,173.183,111.553,173.183z"/>
	<path fill="#F0A830" d="M100.001,189.365c4.231,0,7.84-2.633,9.297-6.348H90.706C92.163,186.732,95.771,189.365,100.001,189.365z"
		/>
</g>
</svg>
