<?xml version="1.0" encoding="utf-8"?>
<!-- Generator: Adobe Illustrator 17.0.0, SVG Export Plug-In . SVG Version: 6.00 Build 0)  -->
<!DOCTYPE svg PUBLIC "-//W3C//DTD SVG 1.1//EN" "http://www.w3.org/Graphics/SVG/1.1/DTD/svg11.dtd">
<svg version="1.1" id="Layer_1" xmlns="http://www.w3.org/2000/svg" xmlns:xlink="http://www.w3.org/1999/xlink" x="0px" y="0px"
	 width="200px" height="200px" viewBox="0 0 200 200" enable-background="new 0 0 200 200" xml:space="preserve">
<circle fill="#FFFFFF" cx="100" cy="101.751" r="92.75"/>
<g>
	<rect x="94.323" y="113.811" fill="#FFD34E" width="11.354" height="39.777"/>
	<g>
		<path fill="#F1BA48" d="M77.757,99.215H51.641c-11.941,0-21.655-9.715-21.655-21.655c0-11.941,9.714-21.655,21.655-21.655h15.571
			V67.11H51.641c-5.761,0-10.45,4.687-10.45,10.45c0,5.762,4.688,10.45,10.45,10.45h26.116V99.215z"/>
	</g>
	<g>
		<path fill="#F1BA48" d="M122.243,99.215h26.116c11.941,0,21.655-9.715,21.655-21.655c0-11.941-9.714-21.655-21.655-21.655h-15.571
			V67.11h15.571c5.761,0,10.45,4.687,10.45,10.45c0,5.762-4.688,10.45-10.45,10.45h-26.116V99.215z"/>
	</g>
	<path fill="#F1BA48" d="M89.051,97.954v11.813c0,4.279,3.468,7.747,7.747,7.747h6.403c4.279,0,7.747-3.468,7.747-7.747V97.954
		H89.051z"/>
	<path fill="#FFD34E" d="M57.808,51.64v16.143c0,23.302,18.89,42.192,42.192,42.192l0,0c23.302,0,42.192-18.89,42.192-42.192V51.64
		H57.808z"/>
	<rect x="50.71" y="40.517" fill="#F1BA48" width="98.579" height="11.124"/>
	<path fill="#F1BA48" d="M112.469,153.588H87.531c-6.299,0-11.405,5.107-11.405,11.406h47.748
		C123.874,158.694,118.768,153.588,112.469,153.588z"/>
	<rect x="67.589" y="164.993" fill="#FFD34E" width="64.822" height="23.905"/>
	<rect x="88.075" y="171.516" fill="#F1BA48" width="23.849" height="10.86"/>
	<polygon fill="#F1BA48" points="100,58.184 105.436,69.199 117.592,70.965 108.796,79.54 110.873,91.646 100,85.93 89.127,91.646 
		91.204,79.54 82.408,70.965 94.564,69.199 	"/>
	<polygon fill="#FFD34E" points="139.074,108.747 134.643,108.747 134.643,104.316 132.187,104.316 132.187,108.747 
		127.756,108.747 127.756,111.203 132.187,111.203 132.187,115.634 134.643,115.634 134.643,111.203 139.074,111.203 	"/>
	<polygon fill="#F1BA48" points="76.884,119.737 71.03,119.737 71.03,113.882 67.785,113.882 67.785,119.737 61.931,119.737 
		61.931,122.982 67.785,122.982 67.785,128.836 71.03,128.836 71.03,122.982 76.884,122.982 	"/>
	<circle fill="#FFD34E" cx="58.768" cy="131.966" r="3.13"/>
	<circle fill="#FFD34E" cx="38.085" cy="49.026" r="4.165"/>
	<circle fill="#F1BA48" cx="86.062" cy="14.756" r="3.654"/>
	<circle fill="#FFD34E" cx="118.854" cy="30.79" r="4.214"/>
	<circle fill="#F1BA48" cx="131.312" cy="27.234" r="3.556"/>
</g>
</svg>
