<?xml version="1.0" encoding="utf-8"?>
<!-- Generator: Adobe Illustrator 17.0.0, SVG Export Plug-In . SVG Version: 6.00 Build 0)  -->
<!DOCTYPE svg PUBLIC "-//W3C//DTD SVG 1.1//EN" "http://www.w3.org/Graphics/SVG/1.1/DTD/svg11.dtd">
<svg version="1.1" id="Layer_1" xmlns="http://www.w3.org/2000/svg" xmlns:xlink="http://www.w3.org/1999/xlink" x="0px" y="0px"
	 width="500px" height="500px" viewBox="0 0 500 500" enable-background="new 0 0 500 500" xml:space="preserve">
<g>
	<g>
		<path fill="#4B4748" d="M426.814,430.634c0,13.257-10.746,24.003-24.002,24.003H76.945c-13.257,0-24.003-10.746-24.003-24.003
			V32.763c0-13.256,10.746-24.003,24.003-24.003h325.866c13.256,0,24.002,10.746,24.002,24.003V430.634z"/>
		<rect x="397.521" y="34.589" fill="#EDEDED" width="6.753" height="394.549"/>
		<rect x="404.271" y="38.335" fill="#D3D3D3" width="6.754" height="388.495"/>
		<rect x="67.019" y="30.837" fill="#FFFFFF" width="330.486" height="399.876"/>
		<circle fill="#4B4748" cx="85.622" cy="60.095" r="8.001"/>
		<circle fill="#4B4748" cx="85.622" cy="115.896" r="8.001"/>
		<circle fill="#4B4748" cx="85.622" cy="171.698" r="8.001"/>
		<circle fill="#4B4748" cx="85.622" cy="227.499" r="8.001"/>
		<circle fill="#4B4748" cx="85.622" cy="283.301" r="8.001"/>
		<circle fill="#4B4748" cx="85.622" cy="339.102" r="8.001"/>
		<circle fill="#4B4748" cx="85.622" cy="394.904" r="8.001"/>
		<rect x="356.578" y="44.593" fill="none" stroke="#4B4748" stroke-miterlimit="10" width="23.079" height="23.079"/>
		<rect x="326.746" y="44.593" fill="none" stroke="#4B4748" stroke-miterlimit="10" width="23.079" height="23.079"/>
		<rect x="296.915" y="44.593" fill="none" stroke="#4B4748" stroke-miterlimit="10" width="23.08" height="23.079"/>
		<g>
			<line fill="#4B4748" x1="287.954" y1="56.132" x2="110.087" y2="56.132"/>
			<path fill="#4B4748" d="M287.954,56.594H110.087c-0.255,0-0.462-0.207-0.462-0.462c0-0.255,0.207-0.461,0.462-0.461h177.867
				c0.255,0,0.461,0.206,0.461,0.461C288.416,56.387,288.209,56.594,287.954,56.594z"/>
		</g>
		<g>
			<path fill="#CEE3C1" d="M84.007,65.172H47.079c-2.804,0-5.077-2.273-5.077-5.077c0-2.804,2.273-5.077,5.077-5.077h36.928
				c2.804,0,5.078,2.273,5.078,5.077C89.084,62.899,86.811,65.172,84.007,65.172z"/>
		</g>
		<g>
			<path fill="#CEE3C1" d="M84.007,120.871H47.079c-2.804,0-5.077-2.273-5.077-5.077c0-2.804,2.273-5.077,5.077-5.077h36.928
				c2.804,0,5.078,2.273,5.078,5.077C89.084,118.598,86.811,120.871,84.007,120.871z"/>
		</g>
		<g>
			<path fill="#CEE3C1" d="M84.007,176.724H47.079c-2.804,0-5.077-2.273-5.077-5.078s2.273-5.077,5.077-5.077h36.928
				c2.804,0,5.078,2.273,5.078,5.077S86.811,176.724,84.007,176.724z"/>
		</g>
		<g>
			<path fill="#CEE3C1" d="M84.007,232.577H47.079c-2.804,0-5.077-2.274-5.077-5.078c0-2.804,2.273-5.077,5.077-5.077h36.928
				c2.804,0,5.078,2.273,5.078,5.077C89.084,230.303,86.811,232.577,84.007,232.577z"/>
		</g>
		<g>
			<path fill="#CEE3C1" d="M84.007,288.43H47.079c-2.804,0-5.077-2.273-5.077-5.077c0-2.804,2.273-5.078,5.077-5.078h36.928
				c2.804,0,5.078,2.274,5.078,5.078C89.084,286.157,86.811,288.43,84.007,288.43z"/>
		</g>
		<g>
			<path fill="#CEE3C1" d="M84.007,344.744H47.079c-2.804,0-5.077-2.274-5.077-5.077c0-2.804,2.273-5.077,5.077-5.077h36.928
				c2.804,0,5.078,2.274,5.078,5.077C89.084,342.471,86.811,344.744,84.007,344.744z"/>
		</g>
		<g>
			<path fill="#CEE3C1" d="M84.007,399.905H47.079c-2.804,0-5.077-2.274-5.077-5.077c0-2.804,2.273-5.077,5.077-5.077h36.928
				c2.804,0,5.078,2.274,5.078,5.077C89.084,397.631,86.811,399.905,84.007,399.905z"/>
		</g>
	</g>
	<g>
		<g>
			
				<rect x="254.497" y="315.625" transform="matrix(-0.3152 0.949 -0.949 -0.3152 830.2756 44.3625)" fill="#FDC771" width="289.271" height="12.207"/>
			
				<rect x="376.165" y="172.39" transform="matrix(-0.949 -0.3152 0.3152 -0.949 650.4015 739.238)" fill="#F7B33C" width="17.624" height="289.272"/>
		</g>
		<polygon fill="#5C5A56" points="333.777,491.24 342.593,480.776 333.049,477.606 		"/>
		<polygon fill="#FEF6DF" points="331.664,451.725 333.049,477.606 342.593,480.776 359.332,460.914 		"/>
		
			<rect x="422.214" y="176.502" transform="matrix(-0.949 -0.3152 0.3152 -0.949 795.4167 487.4252)" fill="#C6865C" width="29.829" height="5.764"/>
		
			<rect x="425.97" y="158.69" transform="matrix(-0.949 -0.3152 0.3152 -0.949 806.3181 466.5447)" fill="#884B21" width="29.831" height="18.761"/>
	</g>
</g>
</svg>
